<?xml version="1.0"?>
<svg xmlns="http://www.w3.org/2000/svg" xmlns:xlink="http://www.w3.org/1999/xlink" xmlns:svgjs="http://svgjs.com/svgjs" version="1.1" width="512" height="512" x="0" y="0" viewBox="0 0 74 74" style="enable-background:new 0 0 512 512" xml:space="preserve" class=""><g><path xmlns="http://www.w3.org/2000/svg" d="m36.988 66.93a29.841 29.841 0 0 1 -12.268-2.653 1 1 0 1 1 .822-1.823 27.914 27.914 0 0 0 36.912-14 28.04 28.04 0 0 0 -2.721-27.665 1 1 0 0 1 1.63-1.159 30.049 30.049 0 0 1 2.914 29.65 29.99 29.99 0 0 1 -27.289 17.65z" fill="#000000" data-original="#000000" style="" class=""/><path xmlns="http://www.w3.org/2000/svg" d="m17.98 16.22a1 1 0 0 1 -.662-1.75 29.178 29.178 0 0 1 2.464-1.936 1 1 0 0 1 1.156 1.633 26.749 26.749 0 0 0 -2.3 1.8 1 1 0 0 1 -.658.253z" fill="#000000" data-original="#000000" style="" class=""/><path xmlns="http://www.w3.org/2000/svg" d="m11.9 52.35a1 1 0 0 1 -.869-.5 29.725 29.725 0 0 1 -3.01-22.3 1 1 0 1 1 1.936.5 27.744 27.744 0 0 0 2.81 20.8 1 1 0 0 1 -.867 1.5z" fill="#000000" data-original="#000000" style="" class=""/><path xmlns="http://www.w3.org/2000/svg" d="m11.739 23.92a1 1 0 0 1 -.872-1.487 28.761 28.761 0 0 1 1.617-2.581 1 1 0 1 1 1.632 1.156 26.548 26.548 0 0 0 -1.5 2.4 1 1 0 0 1 -.877.512z" fill="#000000" data-original="#000000" style="" class=""/><path xmlns="http://www.w3.org/2000/svg" d="m48.87 11.63a.993.993 0 0 1 -.41-.088 27.793 27.793 0 0 0 -21.1-.744 1 1 0 0 1 -.69-1.877 29.765 29.765 0 0 1 22.605.8 1 1 0 0 1 -.41 1.912z" fill="#000000" data-original="#000000" style="" class=""/><path xmlns="http://www.w3.org/2000/svg" d="m41.239 14.535a1 1 0 0 1 -.354-1.936l6.7-2.541-2.542-6.7a1 1 0 0 1 1.871-.708l2.895 7.638a1 1 0 0 1 -.58 1.289l-7.638 2.9a.986.986 0 0 1 -.352.058z" fill="#000000" data-original="#000000" style="" class=""/><path xmlns="http://www.w3.org/2000/svg" d="m28.019 72a1 1 0 0 1 -.936-.646l-2.895-7.638a1 1 0 0 1 .58-1.289l7.638-2.9a1 1 0 1 1 .709 1.87l-6.7 2.541 2.542 6.7a1 1 0 0 1 -.938 1.362z" fill="#000000" data-original="#000000" style="" class=""/><path xmlns="http://www.w3.org/2000/svg" d="m48.072 48.91h-20.144a2.01 2.01 0 0 1 -2.008-2.01v-11.79a2.01 2.01 0 0 1 2.008-2.01h20.144a2.01 2.01 0 0 1 2.008 2.01v11.79a2.01 2.01 0 0 1 -2.008 2.01zm-20.144-13.81-.008.007v11.793l20.152.007.008-11.8z" fill="#000000" data-original="#000000" style="" class=""/><path xmlns="http://www.w3.org/2000/svg" d="m45.051 35.1h-14.1a1 1 0 0 1 -1-1v-6.041a8.051 8.051 0 0 1 16.1 0v6.041a1 1 0 0 1 -1 1zm-13.1-2h12.1v-5.041a6.051 6.051 0 0 0 -12.1 0z" fill="#000000" data-original="#000000" style="" class=""/><path xmlns="http://www.w3.org/2000/svg" d="m38 43.2a1 1 0 0 1 -1-1v-2.39a1 1 0 0 1 2 0v2.39a1 1 0 0 1 -1 1z" fill="#000000" data-original="#000000" style="" class=""/></g></svg>
